<svg xmlns="http://www.w3.org/2000/svg" data-name="Layer 1" fill="#1DC071" viewBox="20 0 470 500" x="0px" y="0px"><title>Announce</title><path d="M433.667,198.964A57.036,57.036,0,1,0,490.7,256,57.1,57.1,0,0,0,433.667,198.964Zm0,53.123a22.323,22.323,0,0,1,5.333,44V300a6,6,0,0,1-12,0v-4.282a22.363,22.363,0,0,1-15.657-21.307,6,6,0,0,1,12,0,10.324,10.324,0,1,0,10.324-10.324A22.326,22.326,0,0,1,427,220.455V216a6,6,0,0,1,12,0v4.086a22.361,22.361,0,0,1,16.991,21.676,6,6,0,0,1-12,0,10.324,10.324,0,1,0-10.324,10.325Z" fill="#ff9900"/><path d="M391.824,157.589a57.035,57.035,0,1,0-57.036-57.035A57.1,57.1,0,0,0,391.824,157.589Zm0-48.948A22.324,22.324,0,0,1,385,65.062V61a6,6,0,0,1,12,0v3.6a22.358,22.358,0,0,1,17.148,21.712,6,6,0,1,1-12,0,10.325,10.325,0,1,0-10.324,10.325A22.323,22.323,0,0,1,397,140.678V145a6,6,0,0,1-12,0v-4.781a22.36,22.36,0,0,1-15.5-21.254,6,6,0,0,1,12,0,10.325,10.325,0,1,0,10.325-10.324Z" fill="#ff9900"/><path d="M448.859,411.446a57.036,57.036,0,1,0-57.035,57.035A57.1,57.1,0,0,0,448.859,411.446ZM385,456v-4.889a22.362,22.362,0,0,1-15.5-21.254,6,6,0,1,1,12,0,10.332,10.332,0,0,0,8.761,10.193,5.711,5.711,0,0,1,2.08.106,10.318,10.318,0,0,0-.516-20.623A22.324,22.324,0,0,1,385,375.954V371a6,6,0,0,1,12,0v4.5a22.358,22.358,0,0,1,17.148,21.712,6,6,0,0,1-12,0,10.325,10.325,0,1,0-10.324,10.325A22.322,22.322,0,0,1,397,451.569V456a6,6,0,0,1-12,0Z" fill="#ff9900"/><path d="M35.3,291H46V222H35.3c-7.719,0-14.3,5.78-14.3,13.5v41C21,284.22,27.578,291,35.3,291Z"/><path d="M126.223,320.5a5.691,5.691,0,0,1,2.885.785L254,344.73V167.27L106,195.02V316.98l19.252,3.589A7.574,7.574,0,0,1,126.223,320.5Z"/><polygon points="85 427 120 427 120 331.814 99.74 328 85 328 85 427"/><path d="M75.3,316H94V196H75.3A17.311,17.311,0,0,0,58,213.041v85.918A17.311,17.311,0,0,0,75.3,316Z"/><path d="M351,256a6,6,0,0,0-6-6H296a6,6,0,0,0,0,12h49A6,6,0,0,0,351,256Z"/><path d="M284.3,212a5.978,5.978,0,0,0,2.527-.561l43-20a6,6,0,1,0-5.061-10.88l-43,20A6,6,0,0,0,284.3,212Z"/><path d="M281.767,311.44l43,20a6,6,0,1,0,5.061-10.88l-43-20a6,6,0,1,0-5.061,10.88Z"/></svg>