<svg xmlns="http://www.w3.org/2000/svg" xmlns:xlink="http://www.w3.org/1999/xlink" version="1.0"
    x="0px" y="0px" fill="#1DC071" width="24" height="24" viewBox="0 0 90 90" enable-background="new 0 0 100 100" xml:space="preserve"><path d="M40,10H16.667C13.001,10,10,13,10,16.667V40c0,3.667,3.001,6.667,6.667,6.667H40c3.665,0,6.667-3,6.667-6.667V16.667  C46.667,13,43.665,10,40,10z M40,40H16.667V16.667H40V40z"/><path d="M83.333,10H60c-3.665,0-6.667,3-6.667,6.667V40c0,3.667,3.002,6.667,6.667,6.667h23.333c3.666,0,6.667-3,6.667-6.667V16.667  C90,13,86.999,10,83.333,10z M83.333,40H60V16.667h23.333V40z"/><path d="M40,53.334H16.667c-3.666,0-6.667,3-6.667,6.666v23.333C10,86.999,13.001,90,16.667,90H40c3.665,0,6.667-3.001,6.667-6.667  V60C46.667,56.334,43.665,53.334,40,53.334z M40,83.333H16.667V60H40V83.333z"/><path d="M83.333,53.334H60c-3.665,0-6.667,3-6.667,6.666v23.333C53.333,86.999,56.335,90,60,90h23.333  C86.999,90,90,86.999,90,83.333V60C90,56.334,86.999,53.334,83.333,53.334z M83.333,83.333H60V60h23.333V83.333z"/><rect x="21.667" y="21.667" width="6.666" height="5"/><rect x="21.667" y="30" width="13.333" height="5"/><rect x="65" y="21.667" width="13.333" height="5"/><rect x="65" y="30" width="6.667" height="5"/><rect x="21.667" y="65" width="13.333" height="5"/><rect x="21.667" y="73.333" width="6.666" height="5"/><rect x="65" y="65" width="6.667" height="5"/><rect x="65" y="73.333" width="13.333" height="5"/></svg>