<svg xmlns:xlink="http://www.w3.org/1999/xlink" xmlns="http://www.w3.org/2000/svg" id="GseCLGj-I" viewBox="0 0 517 277.8125" height="277.8125" width="517" style="width: 517px; height: 277.812px; position: absolute; top: 50%; left: 50%; z-index: 0; cursor: pointer; transform: translate(-50%, -50%) scale(0.350484);"><defs id="SvgjsDefs1475"></defs><g id="SvgjsG1476" featurekey="symbolContainer" transform="matrix(4.5842834181129115,0,0,4.5842834181129115,20.000033731378128,20.01913271603786)" fill="#76B39D"><path xmlns="http://www.w3.org/2000/svg" d="M23.11 55.78L1.69 43.41A3.39 3.39 0 0 1 0 40.48V15.75a3.39 3.39 0 0 1 1.69-2.94L23.11.45a3.39 3.39 0 0 1 3.39 0l21.41 12.37a3.39 3.39 0 0 1 1.69 2.94v24.72a3.39 3.39 0 0 1-1.69 2.94L26.5 55.78a3.39 3.39 0 0 1-3.39 0z" fill="#76B39D"></path></g><g id="SvgjsG1477" featurekey="monogramFeature-0" transform="matrix(3.7923075660039736,0,0,3.7923075660039736,78.18064797140897,3.309290773067609)" fill="#111111"><path d="M8.8932 46.475 c-0.34383 0 -0.6864 -0.10383 -1.0517 -0.315 l-5.2511 -3.0354 c-0.7302 -0.4224 -1.0518 -0.9798 -1.0518 -1.8234 l0 -19.54 c0 -0.8436 0.32162 -1.401 1.0518 -1.8234 l5.5158 -3.1884 c0.23039 -0.13858 0.49981 -0.21838 0.7878 -0.21838 c0.8448 0 1.53 0.6852 1.53 1.53 c0 0.57598 -0.31858 1.0776 -0.78894 1.3386 l-5.037 2.9112 l0 18.439 l4.296 2.4828 l10.864 -6.2796 c0.23039 -0.13858 0.49981 -0.21838 0.7878 -0.21838 c0.8448 0 1.53 0.6852 1.53 1.53 c0 0.57598 -0.31858 1.0776 -0.78894 1.3386 l-11.34 6.555 c-0.36539 0.21117 -0.7092 0.31676 -1.0531 0.31676 z M8.8944 59.947148 l0.0032227 0.00058594 c-0.34383 0 -0.68766 -0.10559 -1.0531 -0.31676 l-5.2511 -3.0354 c-0.7302 -0.4224 -1.0506 -0.9798 -1.0517 -1.8234 l-0.0072072 -6.4086 c0 -0.8256 0.6858 -1.5222 1.5288 -1.5222 c0.25981 0 0.5226 0.065976 0.76374 0.20519 l5.0676 2.9238 l5.0382 -2.9124 c0.23039 -0.13858 0.49981 -0.21838 0.7878 -0.21838 c0.8448 0 1.53 0.6852 1.53 1.53 c0 0.57598 -0.31858 1.0776 -0.78894 1.3386 l-5.514 3.1872 c-0.36539 0.21117 -0.7092 0.31676 -1.0531 0.31676 s-0.68766 -0.10559 -1.0531 -0.31676 l-3.243 -1.8744 l0 3.2004 l4.296 2.4834 l10.121 -5.8506 l0 -5.8524 c0 -0.8448 0.6852 -1.53 1.53 -1.53 s1.53 0.6852 1.53 1.53 l0 6.4026 c0 0.8436 -0.32162 1.401 -1.0518 1.8174 l-11.077 6.4086 c-0.36539 0.21117 -0.7092 0.31676 -1.0531 0.31676 z M20.549 60.0023438 c-0.8448 0 -1.5325 -0.68694 -1.5325 -1.5317 c0 -0.57598 0.31858 -1.0776 0.78894 -1.3386 l5.037 -2.9112 l0 -18.439 l-4.296 -2.4828 l-5.0382 2.9118 c-0.22981 0.13858 -0.49922 0.21838 -0.7872 0.21838 c-0.8448 0 -1.53 -0.6852 -1.53 -1.53 c0 -0.57598 0.31858 -1.0776 0.78894 -1.3386 l5.514 -3.1872 c0.36539 -0.21117 0.7092 -0.31676 1.0531 -0.31676 s0.68766 0.10559 1.0531 0.31676 l5.2511 3.0354 c0.7308 0.4224 1.0524 0.9798 1.0524 1.8234 l0 19.54 c0 0.8436 -0.32162 1.401 -1.0518 1.8234 l-5.5158 3.1884 c-0.22981 0.13858 -0.49922 0.21838 -0.7872 0.21838 z M8.895 39.796 c-0.8448 0 -1.532 -0.68586 -1.532 -1.5307 l0 -6.4026 c0 -0.8436 0.32162 -1.401 1.0518 -1.8234 l11.077 -6.4026 c0.36539 -0.21117 0.7092 -0.31676 1.0531 -0.31676 s0.68766 0.10559 1.0531 0.31676 l3.243 1.8744 l0 -3.2004 l-4.296 -2.4834 l-10.864 6.2796 c-0.23039 0.13858 -0.49981 0.21838 -0.7878 0.21838 c-0.8448 0 -1.53 -0.6852 -1.53 -1.53 c0 -0.57598 0.31858 -1.0776 0.78894 -1.3386 l11.34 -6.555 c0.36539 -0.21117 0.7092 -0.31676 1.0531 -0.31676 s0.68766 0.10559 1.0531 0.31676 l5.2511 3.0354 c0.7308 0.4224 1.0524 0.9798 1.0524 1.8234 l0 6.9372 c0 0.8532 -0.37981 1.3289 -0.9696 1.3289 c-0.25318 0 -0.54539 -0.0876 -0.8628 -0.27117 l-5.523 -3.1926 l-10.121 5.8506 l0 5.8524 c0 0.8448 -0.6852 1.53 -1.53 1.53 z" fill="#111111"></path></g><g id="SvgjsG1478" featurekey="nameFeature-0" transform="matrix(2.6709399967721796,0,0,2.6709399967721796,263.7948725133148,59.700855005648684)" fill="#F9F8EB"><path d="M1.2 30.240000000000002 l4.04 0 c0.08 5.16 0.48 6.16 1.92 6.16 c1.96 0 1.96 -1.64 1.96 -6 c0 -6.4 -7.92 -4.68 -7.92 -13.2 c0 -5 0 -9.6 6 -9.6 c4.44 0 5.64 2.52 5.92 8.56 l-4 0 c-0.16 -4.36 -0.64 -5.36 -1.92 -5.36 c-1.96 0 -1.96 2.16 -1.96 6.4 c0 6.2 7.96 4 7.96 13.2 c0 5.6 0 10 -6.04 10 c-4.64 0 -5.72 -2.76 -5.96 -10.16 z M18.2 23.16 l0 -15.16 l4 0 l0 15.16 c0 11.56 0 13.24 2 13.24 s2 -1.68 2 -13.24 l0 -15.16 l4 0 l0 15.16 c0 12.8 0 17.24 -6 17.24 s-6 -4.44 -6 -17.24 z M36 40 l0 -32 l6.48 0 c4.12 0 5.2 2.52 5.52 8.56 l0 1.28 c-0.32 6.04 -1.4 8.56 -5.52 8.56 l-2.48 0 l0 13.6 l-4 0 z M40 23.2 l2.48 0 c1.2 0 1.64 -1 1.8 -5.36 l0 -1.28 c-0.16 -4.36 -0.6 -5.36 -1.8 -5.36 l-2.48 0 l0 12 z M52.8 40 l0 -32 l6.48 0 c4.12 0 5.2 2.52 5.52 8.56 l0 1.28 c-0.32 6.04 -1.4 8.56 -5.52 8.56 l-2.48 0 l0 13.6 l-4 0 z M56.8 23.2 l2.48 0 c1.2 0 1.64 -1 1.8 -5.36 l0 -1.28 c-0.16 -4.36 -0.6 -5.36 -1.8 -5.36 l-2.48 0 l0 12 z M69.6 40 l0 -32 l4 0 l0 28 l5.2 0 l0 4 l-9.2 0 z M81.6 8 l4 0 l2.4 12.32 l0.4 0 l2.4 -12.32 l4 0 l-4.6 18.08 l0 13.92 l-4 0 l0 -13.92 z" fill="#F9F8EB"></path></g><g id="SvgjsG1479" featurekey="sloganFeature-0" transform="matrix(2.5879090539105505,0,0,2.5879090539105505,266.896328868159,165.42270612196762)" fill="#F9F8EB"><path d="M7.92 16.12 c0 1.2267 -0.3199 2.21 -0.9599 2.95 s-1.5933 1.11 -2.86 1.11 c-0.74666 0 -1.3767 -0.10666 -1.89 -0.32 s-0.93 -0.52 -1.25 -0.92 s-0.55 -0.88 -0.69 -1.44 s-0.20334 -1.1867 -0.19 -1.88 l0.02 -0.52 l1.54 0 c0 0.42666 0.01334 0.86332 0.04 1.31 s0.11332 0.85332 0.25998 1.22 s0.37332 0.66666 0.67998 0.9 s0.74666 0.35 1.32 0.35 c0.88 0 1.5267 -0.23334 1.94 -0.7 s0.62 -1.12 0.62 -1.96 c0 -0.66666 -0.16 -1.1933 -0.48 -1.58 s-0.72 -0.71332 -1.2 -0.97998 s-0.99666 -0.50666 -1.55 -0.72 s-1.07 -0.48 -1.55 -0.8 s-0.88 -0.73 -1.2 -1.23 s-0.48 -1.1633 -0.48 -1.99 c0 -1.3333 0.34334 -2.3434 1.03 -3.03 s1.6967 -1.03 3.03 -1.03 c0.62666 0 1.17 0.1 1.63 0.3 s0.84334 0.48 1.15 0.84 s0.53332 0.78666 0.67998 1.28 s0.22 1.04 0.22 1.64 l0 1.26 l-1.46 0 c0 -0.44 -0.0033398 -0.89666 -0.01 -1.37 s-0.07666 -0.90668 -0.21 -1.3 s-0.35668 -0.71668 -0.67002 -0.97002 s-0.77 -0.38 -1.37 -0.38 c-0.86666 0 -1.52 0.22 -1.96 0.66 s-0.64666 1.0867 -0.62 1.94 l0 0.2 c0.01334 0.41334 0.08334 0.75668 0.21 1.03 s0.3 0.50668 0.52 0.70002 s0.47666 0.36334 0.77 0.51 s0.61334 0.3 0.96 0.46 c0.50666 0.22666 1 0.46666 1.48 0.72 s0.90334 0.55 1.27 0.89 s0.66332 0.74 0.88998 1.2 s0.34 1.01 0.34 1.65 z M21.0605 20 l-1.4 0 l-1.06 -4.3 l-4.36 0 l-1.06 4.3 l-1.36 0 l4.06 -15 l1.14 0 z M18.2605 14.36 l-1.78 -7.42 l-1.9 7.42 l3.68 0 z M32.901 6.5 l-5.78 0 l0 5.5 l5.68 0 l0 1.44 l-5.68 0 l0 6.56 l-1.5 0 l0 -15 l7.28 0 l0 1.5 z M45.121500000000005 20 l-7.5 0 l0 -15 l7.36 0 l0 1.52 l-5.98 0 l0 5.16 l5.94 0 l0 1.3 l-5.94 0 l0 5.5 l6.12 0 l0 1.52 z" fill="#F9F8EB"></path></g></svg>