<svg xmlns="http://www.w3.org/2000/svg" viewBox="0 0 60 60" fill="none" x="0px" y="0px"><path fill-rule="evenodd" clip-rule="evenodd" d="M10.2422 10.2422C21.2319 -0.747412 39.0496 -0.747412 50.0393 10.2422C60.5534 20.7564 61.0083 37.5206 51.404 48.5756L61.4142 58.5858C62.1953 59.3668 62.1953 60.6332 61.4142 61.4142C60.6332 62.1953 59.3668 62.1953 58.5858 61.4142L48.5756 51.404C37.5206 61.0083 20.7564 60.5534 10.2422 50.0393C-0.747412 39.0496 -0.747412 21.2319 10.2422 10.2422ZM32 20C32 18.8954 31.1046 18 30 18C28.8954 18 28 18.8954 28 20V20.2682C25.1799 20.5743 23 22.9739 23 25.8676C23 28.9672 25.5011 31.5 28.6111 31.5H31.3889C32.2676 31.5 33 32.2198 33 33.1324C33 34.045 32.2676 34.7647 31.3889 34.7647H25C23.8954 34.7647 23 35.6601 23 36.7647C23 37.8693 23.8954 38.7647 25 38.7647H28V39C28 40.1046 28.8954 41 30 41C31.1046 41 32 40.1046 32 39V38.7318C34.8201 38.4257 37 36.0261 37 33.1324C37 30.0328 34.4989 27.5 31.3889 27.5H28.6111C27.7324 27.5 27 26.7802 27 25.8676C27 24.955 27.7324 24.2353 28.6111 24.2353H35C36.1046 24.2353 37 23.3399 37 22.2353C37 21.1307 36.1046 20.2353 35 20.2353H32V20Z" stroke="gray" fill="#1DC071"/></svg>