<svg xmlns="http://www.w3.org/2000/svg" xmlns:xlink="http://www.w3.org/1999/xlink" version="1.1" x="0px" y="0px" fill="#1DC071" viewBox="0 0 100 97" enable-background="new 0 0 100 100" xml:space="preserve"><g><g><path stroke-width="4" stroke-miterlimit="10" d="M64,24.5C64,32.508,57.508,39,49.5,39l0,0    C41.492,39,35,32.508,35,24.5v-6C35,10.492,41.492,4,49.5,4l0,0C57.508,4,64,10.492,64,18.5V24.5z"/><path stroke-width="4" stroke-linecap="round" stroke-linejoin="round" stroke-miterlimit="10" d="    M67,80h19.187h0.084c0,0-0.063-3.266-0.103-3.9c-1.103-17.093-16.895-29.656-36.188-29.656l0,0C29.971,46.444,13.824,61,13.824,80    H13.73H33"/></g><circle fill="none" stroke="#ff9900" stroke-width="4" stroke-linecap="round" stroke-linejoin="round" stroke-miterlimit="10" cx="50.042" cy="79.396" r="16.791"/><g><path fill="none" stroke="#ff9900" stroke-width="4" stroke-linecap="round" stroke-linejoin="round" stroke-miterlimit="10" d="    M56.057,75.25c0-2.479-2.594-4.489-5.794-4.489s-5.788,2.01-5.788,4.489c0,2.479,2.497,4.489,5.8,4.489l0,0    c3.304,0,5.788,1.99,5.788,4.469s-2.597,4.489-5.797,4.489s-5.796-2.01-5.796-4.489"/><line fill="none" stroke="#ff9900" stroke-width="4" stroke-linecap="round" stroke-linejoin="round" stroke-miterlimit="10" x1="50" y1="68" x2="50" y2="91"/></g></g></svg>