<svg xmlns="http://www.w3.org/2000/svg" xmlns:xlink="http://www.w3.org/1999/xlink" version="1.1"
    width="256" height="256" viewBox="0 0 256 256" xml:space="preserve" stroke="currentColor"
    fill="red">

<defs>
</defs>
<g style="stroke: none; stroke-width: 0; stroke-dasharray: none; stroke-linecap: butt; stroke-linejoin: miter; stroke-miterlimit: 10; fill: none; fill-rule: nonzero; opacity: 1;" transform="translate(1.4065934065934016 1.4065934065934016) scale(2.81 2.81)">
	<path d="M 83.806 19.987 H 6.195 C 2.779 19.987 0 22.766 0 26.181 v 12.163 c 0 3.416 2.779 6.195 6.195 6.195 h 17.974 V 64.32 c 0 3.14 2.554 5.693 5.693 5.693 h 30.85 c 3.14 0 5.693 -2.554 5.693 -5.693 V 44.539 h 17.4 c 3.416 0 6.194 -2.779 6.194 -6.195 V 26.181 C 90 22.766 87.222 19.987 83.806 19.987 z M 62.405 64.32 c 0 0.934 -0.76 1.693 -1.693 1.693 h -30.85 c -0.934 0 -1.693 -0.76 -1.693 -1.693 V 34.263 h 34.236 V 64.32 z M 86 38.344 c 0 1.21 -0.984 2.195 -2.194 2.195 h -17.4 v -6.276 h 11.239 c 1.104 0 2 -0.896 2 -2 s -0.896 -2 -2 -2 H 64.405 H 26.169 H 12.93 c -1.104 0 -2 0.896 -2 2 s 0.896 2 2 2 h 11.239 v 6.276 H 6.195 C 4.984 40.539 4 39.554 4 38.344 V 26.181 c 0 -1.21 0.984 -2.194 2.195 -2.194 h 77.611 c 1.21 0 2.194 0.984 2.194 2.194 V 38.344 z" style="stroke: currentColor; stroke-width: 1; stroke-dasharray: none; stroke-linecap: butt; stroke-linejoin: miter; stroke-miterlimit: 10; fill: none; fill-rule: nonzero; opacity: 1;" transform=" matrix(1 0 0 1 0 0) " stroke-linecap="round"/>
	<path d="M 51.112 49.938 L 47 54.049 V 41.022 c 0 -1.104 -0.896 -2 -2 -2 s -2 0.896 -2 2 v 13.027 l -4.112 -4.112 c -0.781 -0.781 -2.048 -0.781 -2.828 0 c -0.781 0.781 -0.781 2.048 0 2.828 l 7.525 7.524 c 0.093 0.094 0.196 0.177 0.307 0.251 c 0.048 0.032 0.099 0.053 0.148 0.081 c 0.065 0.036 0.127 0.075 0.196 0.103 c 0.065 0.027 0.133 0.042 0.2 0.062 c 0.058 0.017 0.113 0.039 0.173 0.051 c 0.129 0.026 0.26 0.039 0.392 0.039 s 0.262 -0.014 0.392 -0.039 c 0.06 -0.012 0.115 -0.034 0.173 -0.051 c 0.067 -0.02 0.135 -0.035 0.2 -0.062 c 0.069 -0.028 0.131 -0.067 0.196 -0.103 c 0.049 -0.027 0.101 -0.049 0.148 -0.081 c 0.11 -0.074 0.213 -0.157 0.307 -0.251 l 7.525 -7.524 c 0.781 -0.78 0.781 -2.047 0 -2.828 S 51.894 49.156 51.112 49.938 z" style="stroke: none; stroke-width: 1; stroke-dasharray: none; stroke-linecap: butt; stroke-linejoin: miter; stroke-miterlimit: 10; fill: currentColor; fill-rule: nonzero; opacity: 1;" transform=" matrix(1 0 0 1 0 0) " stroke-linecap="round"/>
</g>
</svg>